<svg width="30" height="30" viewBox="0 0 30 30" fill="none" xmlns="http://www.w3.org/2000/svg">
<path d="M6.58557 12.1874C6.584 11.076 6.80234 9.9752 7.22802 8.94851C7.65369 7.92183 8.27828 6.9895 9.06581 6.20524C9.85334 5.42097 10.7883 4.80026 11.8167 4.37886C12.8452 3.95747 13.9468 3.7437 15.0582 3.74989C19.6988 3.78504 23.4137 7.64051 23.4137 12.2929V13.1249C23.4137 17.3202 24.2926 19.7577 25.066 21.0936C25.1482 21.2359 25.1915 21.3973 25.1916 21.5616C25.1918 21.7258 25.1488 21.8873 25.0669 22.0297C24.985 22.1721 24.8671 22.2905 24.725 22.373C24.583 22.4556 24.4217 22.4993 24.2574 22.4999H5.74182C5.57753 22.4993 5.41628 22.4556 5.27422 22.373C5.13216 22.2905 5.01428 22.1721 4.93239 22.0297C4.8505 21.8873 4.80747 21.7258 4.80762 21.5616C4.80776 21.3973 4.85108 21.2359 4.93322 21.0936C5.70666 19.7577 6.58557 17.3202 6.58557 13.1249V12.1874Z" stroke="url(#paint0_linear_312_2820)" stroke-linecap="round" stroke-linejoin="round"/>
<path d="M11.25 22.5V23.4375C11.25 24.4321 11.6451 25.3859 12.3483 26.0891C13.0516 26.7924 14.0054 27.1875 15 27.1875C15.9946 27.1875 16.9484 26.7924 17.6516 26.0891C18.3549 25.3859 18.75 24.4321 18.75 23.4375V22.5" stroke="url(#paint1_linear_312_2820)" stroke-linecap="round" stroke-linejoin="round"/>
<defs>
<linearGradient id="paint0_linear_312_2820" x1="14.9996" y1="3.74976" x2="14.9996" y2="22.4999" gradientUnits="userSpaceOnUse">
<stop stop-color="#064FF8"/>
<stop offset="1" stop-color="#55ACEE"/>
</linearGradient>
<linearGradient id="paint1_linear_312_2820" x1="15" y1="22.5" x2="15" y2="27.1875" gradientUnits="userSpaceOnUse">
<stop stop-color="#064FF8"/>
<stop offset="1" stop-color="#55ACEE"/>
</linearGradient>
</defs>
</svg>
