<svg width="30" height="30" viewBox="0 0 30 30" fill="none" xmlns="http://www.w3.org/2000/svg">
<path d="M15.4688 25.3125H5.58992C5.47099 25.3141 5.35294 25.2918 5.24275 25.247C5.13257 25.2022 5.03246 25.1358 4.94836 25.0517C4.86425 24.9676 4.79784 24.8675 4.75306 24.7573C4.70827 24.6471 4.686 24.5291 4.68758 24.4102V14.5312C4.68758 11.6719 5.82346 8.92963 7.84533 6.90775C9.86721 4.88588 12.6095 3.75 15.4688 3.75V3.75C16.8846 3.75 18.2866 4.02887 19.5946 4.57067C20.9027 5.11248 22.0912 5.90662 23.0923 6.90775C24.0935 7.90889 24.8876 9.0974 25.4294 10.4054C25.9712 11.7135 26.2501 13.1154 26.2501 14.5312V14.5312C26.2501 15.9471 25.9712 17.349 25.4294 18.6571C24.8876 19.9651 24.0935 21.1536 23.0923 22.1547C22.0912 23.1559 20.9027 23.95 19.5946 24.4918C18.2866 25.0336 16.8846 25.3125 15.4688 25.3125V25.3125Z" stroke="url(#paint0_linear_312_2819)" stroke-linecap="round" stroke-linejoin="round"/>
<path d="M15.4688 16.4062C16.2454 16.4062 16.875 15.7767 16.875 15C16.875 14.2233 16.2454 13.5938 15.4688 13.5938C14.6921 13.5938 14.0625 14.2233 14.0625 15C14.0625 15.7767 14.6921 16.4062 15.4688 16.4062Z" fill="url(#paint1_linear_312_2819)"/>
<path d="M9.84375 16.4062C10.6204 16.4062 11.25 15.7767 11.25 15C11.25 14.2233 10.6204 13.5938 9.84375 13.5938C9.0671 13.5938 8.4375 14.2233 8.4375 15C8.4375 15.7767 9.0671 16.4062 9.84375 16.4062Z" fill="url(#paint2_linear_312_2819)"/>
<path d="M21.0938 16.4062C21.8704 16.4062 22.5 15.7767 22.5 15C22.5 14.2233 21.8704 13.5938 21.0938 13.5938C20.3171 13.5938 19.6875 14.2233 19.6875 15C19.6875 15.7767 20.3171 16.4062 21.0938 16.4062Z" fill="url(#paint3_linear_312_2819)"/>
<defs>
<linearGradient id="paint0_linear_312_2819" x1="15.4688" y1="3.75" x2="15.4688" y2="25.3126" gradientUnits="userSpaceOnUse">
<stop stop-color="#064FF8"/>
<stop offset="1" stop-color="#55ACEE"/>
</linearGradient>
<linearGradient id="paint1_linear_312_2819" x1="15.4688" y1="13.5938" x2="15.4688" y2="16.4062" gradientUnits="userSpaceOnUse">
<stop stop-color="#064FF8"/>
<stop offset="1" stop-color="#55ACEE"/>
</linearGradient>
<linearGradient id="paint2_linear_312_2819" x1="9.84375" y1="13.5938" x2="9.84375" y2="16.4062" gradientUnits="userSpaceOnUse">
<stop stop-color="#064FF8"/>
<stop offset="1" stop-color="#55ACEE"/>
</linearGradient>
<linearGradient id="paint3_linear_312_2819" x1="21.0938" y1="13.5938" x2="21.0938" y2="16.4062" gradientUnits="userSpaceOnUse">
<stop stop-color="#064FF8"/>
<stop offset="1" stop-color="#55ACEE"/>
</linearGradient>
</defs>
</svg>
