<svg width="36" height="36" viewBox="0 0 36 36" fill="none" xmlns="http://www.w3.org/2000/svg">
<path d="M35.4301 17.715C35.4301 7.93136 27.4987 0 17.715 0C7.93136 0 0 7.93122 0 17.715C0 26.5571 6.47817 33.886 14.9471 35.2149V22.8358H10.4491V17.715H14.9471V13.8122C14.9471 9.37237 17.5919 6.91994 21.6382 6.91994C23.5765 6.91994 25.6038 7.26594 25.6038 7.26594V11.6255H23.37C21.1692 11.6255 20.483 12.9911 20.483 14.3921V17.715H25.3962L24.6108 22.8358H20.483V35.2149C28.9519 33.886 35.4301 26.5572 35.4301 17.715Z" fill="#1877F2"/>
<path d="M24.6109 22.8358L25.3963 17.715H20.4831V14.3921C20.4831 12.9909 21.1694 11.6255 23.3701 11.6255H25.6039V7.26592C25.6039 7.26592 23.5766 6.91992 21.6383 6.91992C17.592 6.91992 14.9472 9.37235 14.9472 13.8122V17.715H10.4492V22.8358H14.9472V35.2149C15.8629 35.3584 16.7883 35.4303 17.7152 35.4301C18.642 35.4303 19.5675 35.3584 20.4831 35.2149V22.8358H24.6109Z" fill="white"/>
</svg>
