<svg width="35" height="36" viewBox="0 0 35 36" fill="none" xmlns="http://www.w3.org/2000/svg">
<path d="M34.7213 18.1088C34.7213 16.6522 34.6031 15.5893 34.3473 14.4871H17.7148V21.0612H27.4777C27.281 22.695 26.2181 25.1554 23.856 26.8088L23.8229 27.0288L29.0818 31.1028L29.4461 31.1392C32.7922 28.0489 34.7213 23.502 34.7213 18.1088Z" fill="#4285F4"/>
<path d="M17.7151 35.4301C22.4981 35.4301 26.5135 33.8554 29.4464 31.1392L23.8563 26.8087C22.3604 27.852 20.3526 28.5802 17.7151 28.5802C13.0305 28.5802 9.0545 25.49 7.63717 21.2188L7.42942 21.2364L1.96116 25.4683L1.88965 25.6671C4.80276 31.454 10.7865 35.4301 17.7151 35.4301Z" fill="#34A853"/>
<path d="M7.63708 21.2187C7.2631 20.1165 7.04667 18.9354 7.04667 17.7151C7.04667 16.4946 7.2631 15.3137 7.6174 14.2114L7.6075 13.9767L2.07071 9.67676L1.88956 9.76292C0.688926 12.1643 0 14.861 0 17.7151C0 20.5692 0.688926 23.2657 1.88956 25.6671L7.63708 21.2187Z" fill="#FBBC05"/>
<path d="M17.7151 6.84977C21.0416 6.84977 23.2854 8.28665 24.5649 9.48742L29.5645 4.60591C26.4939 1.75183 22.4981 0 17.7151 0C10.7865 0 4.80276 3.97601 1.88965 9.76288L7.61749 14.2114C9.0545 9.9401 13.0305 6.84977 17.7151 6.84977Z" fill="#EB4335"/>
</svg>
