<svg width="18" height="19" viewBox="0 0 18 19" fill="none" xmlns="http://www.w3.org/2000/svg">
<path fill-rule="evenodd" clip-rule="evenodd" d="M8.23232 1.32642C7.98872 1.25152 7.7315 1.29767 7.51437 1.45524C7.29724 1.6128 7.137 1.8696 7.06712 2.17199C6.99725 2.47438 7.02314 2.79897 7.13938 3.07796C7.27105 3.39394 7.17375 3.78409 6.92206 3.94938C6.67037 4.11468 6.35961 3.99252 6.22795 3.67654C5.98872 3.10242 5.93544 2.43446 6.07924 1.81219C6.22303 1.18992 6.55278 0.661463 6.9996 0.337211C7.44642 0.0129578 7.97576 -0.082013 8.47703 0.0721367C8.97831 0.226286 9.41276 0.617634 9.68964 1.16443C9.69351 1.17209 9.69726 1.17984 9.70087 1.1877L11.9309 6.03108C12.073 6.33982 11.9889 6.73476 11.743 6.91322C11.4971 7.09168 11.1825 6.98607 11.0403 6.67734L8.81633 1.84698C8.68158 1.58662 8.47277 1.40037 8.23232 1.32642Z" fill="black"/>
<path fill-rule="evenodd" clip-rule="evenodd" d="M4.4814 2.21321C4.21063 2.14469 3.9247 2.1869 3.68334 2.33102C3.44198 2.47514 3.26387 2.71002 3.18619 2.9866C3.10951 3.25964 3.13658 3.55247 3.26161 3.80543L4.57704 6.15796C4.73496 6.44039 4.64135 6.8016 4.36794 6.96473C4.09453 7.12787 3.74487 7.03117 3.58695 6.74873L2.26491 4.38437C2.26092 4.37724 2.25708 4.37003 2.25338 4.36273C1.98746 3.83761 1.92824 3.22667 2.08808 2.65751C2.24792 2.08835 2.61446 1.605 3.11114 1.30843C3.60782 1.01185 4.19621 0.924987 4.75343 1.06598C5.31064 1.20697 5.79356 1.56492 6.10133 2.06504C6.1057 2.07214 6.10992 2.07934 6.11399 2.08662L8.92333 7.11408C9.08118 7.39656 8.98747 7.75774 8.71402 7.9208C8.44057 8.08386 8.09094 7.98706 7.93309 7.70458L5.1305 2.6892C4.98071 2.45113 4.74863 2.28083 4.4814 2.21321Z" fill="black"/>
<path fill-rule="evenodd" clip-rule="evenodd" d="M13.5324 4.20006C13.2417 4.12428 12.9318 4.16362 12.6709 4.30942C12.4101 4.45522 12.2197 4.69555 12.1415 4.97752C12.0634 5.2595 12.104 5.56003 12.2543 5.81299L12.2547 5.81362L13.1208 7.27516C13.2856 7.55327 13.1869 7.90829 12.9003 8.06836C12.5745 8.25029 12.289 8.49278 12.0601 8.78194C11.8312 9.07109 11.6634 9.40122 11.5662 9.7534C11.4691 10.1056 11.4447 10.4729 11.4942 10.8343C11.5438 11.1956 11.6664 11.544 11.855 11.8593C12.0211 12.1369 11.9237 12.4925 11.6374 12.6536C11.3512 12.8147 10.9845 12.7202 10.8184 12.4426C10.5506 11.995 10.3765 11.5005 10.3062 10.9875C10.2358 10.4745 10.2706 9.95309 10.4084 9.45315C10.5463 8.9532 10.7845 8.48456 11.1095 8.07409C11.3121 7.81813 11.546 7.58793 11.8055 7.38827L11.2159 6.39342C11.2159 6.39338 11.216 6.39345 11.2159 6.39342C10.9069 5.87339 10.8235 5.25551 10.9841 4.67586C11.1447 4.09618 11.5362 3.60213 12.0725 3.30239C12.6087 3.00265 13.2457 2.92177 13.8434 3.07756C14.4412 3.23334 14.9506 3.61302 15.2597 4.13307L16.9917 7.04743C17.9899 8.72473 18.2603 10.7179 17.7432 12.5885C17.2262 14.4592 15.9641 16.0539 14.2346 17.0221C12.5051 17.9902 10.4499 18.2524 8.52106 17.751C6.59225 17.2495 4.94784 16.0255 3.94958 14.3482L0.311916 8.23315C0.158882 7.97564 0.0595183 7.69122 0.0197411 7.39652C-0.0200361 7.10182 0.000427319 6.80241 0.0799627 6.51538C0.240592 5.9357 0.632083 5.44165 1.16831 5.14191C1.70454 4.84217 2.34159 4.76129 2.9393 4.91707C3.53686 5.07282 4.04618 5.45234 4.35527 5.97219L6.26068 9.17245C6.42617 9.4504 6.32799 9.80584 6.04139 9.96634C5.75479 10.1268 5.38829 10.0316 5.22279 9.75367L3.31738 6.55341C3.16704 6.30044 2.919 6.11535 2.62826 6.03958C2.33751 5.9638 2.02763 6.00314 1.76679 6.14894C1.50595 6.29474 1.31552 6.53507 1.23739 6.81704C1.1987 6.95666 1.18874 7.1023 1.20809 7.24566C1.22743 7.38893 1.27566 7.5271 1.35003 7.6523L4.98757 13.7671C5.82693 15.1775 7.20959 16.2066 8.83138 16.6283C10.4532 17.0499 12.1812 16.8295 13.6354 16.0154C15.0896 15.2014 16.1508 13.8604 16.5856 12.2876C17.0203 10.7147 16.793 9.03879 15.9537 7.62848L14.2213 4.71349C14.071 4.46052 13.8232 4.27583 13.5324 4.20006Z" fill="black"/>
<path fill-rule="evenodd" clip-rule="evenodd" d="M2.29679 15.0735C2.57939 14.9211 2.93962 15.0134 3.1014 15.2795C3.75638 16.3571 4.65982 17.2825 5.7451 17.9875C6.01316 18.1617 6.08058 18.5075 5.8957 18.7599C5.71081 19.0124 5.34364 19.0759 5.07558 18.9018C3.84503 18.1024 2.82066 17.0531 2.07801 15.8313C1.91624 15.5651 2.01419 15.2258 2.29679 15.0735Z" fill="black"/>
<path fill-rule="evenodd" clip-rule="evenodd" d="M15.5036 1.99246C14.9218 1.59531 14.2614 1.38723 13.5895 1.38939C13.2648 1.39043 13.0009 1.08025 13 0.696586C12.9991 0.312924 13.2616 0.00106138 13.5864 2.16189e-05C14.4659 -0.0027946 15.3303 0.26958 16.0919 0.789458C16.8534 1.30934 17.4849 2.05818 17.9221 2.95987C18.0835 3.29278 17.986 3.71726 17.7042 3.90797C17.4225 4.09869 17.0632 3.98343 16.9018 3.65052C16.5678 2.96169 16.0854 2.38962 15.5036 1.99246Z" fill="black"/>
</svg>
