<svg width="32" height="32" viewBox="0 0 32 32" fill="none" xmlns="http://www.w3.org/2000/svg">
<path fill-rule="evenodd" clip-rule="evenodd" d="M15.1817 1.61421C15.6632 1.23972 16.3374 1.23972 16.8189 1.61421L28.8189 10.9475C29.1437 11.2001 29.3337 11.5886 29.3337 12V26.6667C29.3337 27.7275 28.9122 28.745 28.1621 29.4951C27.4119 30.2453 26.3945 30.6667 25.3337 30.6667H6.66699C5.60613 30.6667 4.58871 30.2453 3.83856 29.4951C3.08842 28.745 2.66699 27.7275 2.66699 26.6667V12C2.66699 11.5886 2.85696 11.2001 3.18174 10.9475L15.1817 1.61421ZM5.33366 12.6521V26.6667C5.33366 27.0203 5.47413 27.3594 5.72418 27.6095C5.97423 27.8595 6.31337 28 6.66699 28H25.3337C25.6873 28 26.0264 27.8595 26.2765 27.6095C26.5265 27.3594 26.667 27.0203 26.667 26.6667V12.6521L16.0003 4.35583L5.33366 12.6521Z" fill="black"/>
<path fill-rule="evenodd" clip-rule="evenodd" d="M10.667 16C10.667 15.2636 11.2639 14.6667 12.0003 14.6667H20.0003C20.7367 14.6667 21.3337 15.2636 21.3337 16V29.3333C21.3337 30.0697 20.7367 30.6667 20.0003 30.6667C19.2639 30.6667 18.667 30.0697 18.667 29.3333V17.3333H13.3337V29.3333C13.3337 30.0697 12.7367 30.6667 12.0003 30.6667C11.2639 30.6667 10.667 30.0697 10.667 29.3333V16Z" fill="black"/>
</svg>
