<svg width="34" height="28" viewBox="0 0 34 28" fill="none" xmlns="http://www.w3.org/2000/svg">
<path d="M33.8196 3.24092C32.5532 3.79977 31.2099 4.1666 29.8345 4.32921C31.2672 3.47384 32.3672 2.11934 32.8852 0.505456C31.5233 1.31053 30.0332 1.87776 28.4793 2.18263C27.2136 0.839444 25.4104 0 23.4147 0C19.5828 0 16.476 3.09459 16.476 6.91137C16.476 7.45314 16.5374 7.98057 16.6556 8.48656C10.8891 8.19823 5.77655 5.44671 2.3543 1.26515C1.75717 2.28594 1.41501 3.47332 1.41501 4.73979C1.41501 7.13771 2.64004 9.2531 4.50171 10.4926C3.39986 10.4582 2.32226 10.1618 1.35886 9.62801C1.35847 9.65696 1.35847 9.68591 1.35847 9.715C1.35847 13.0637 3.75015 15.8572 6.92417 16.4921C5.90243 16.7689 4.8307 16.8094 3.79084 16.6106C4.67371 19.3564 7.23621 21.3546 10.2723 21.4105C7.89768 23.2641 4.90583 24.3691 1.65518 24.3691C1.09504 24.3691 0.542831 24.3364 0 24.2726C3.07058 26.2336 6.71769 27.3778 10.636 27.3778C23.3986 27.3778 30.3774 16.8461 30.3774 7.71291C30.3774 7.41314 30.3708 7.11507 30.3573 6.81872C31.7157 5.84056 32.8882 4.629 33.8196 3.24092Z" fill="#55ACEE"/>
</svg>
